<svg xmlns="http://www.w3.org/2000/svg" width="1200" height="630" viewBox="0 0 1200 630">
  <defs>
    <radialGradient id="glow" cx="78%" cy="12%" r="60%">
      <stop offset="0%" stop-color="#c69a52" stop-opacity="0.22"/>
      <stop offset="100%" stop-color="#c69a52" stop-opacity="0"/>
    </radialGradient>
    <linearGradient id="gold" x1="0" y1="0" x2="0" y2="1">
      <stop offset="0%" stop-color="#dcb164"/>
      <stop offset="100%" stop-color="#8a6428"/>
    </linearGradient>
  </defs>

  <rect width="1200" height="630" fill="#14181f"/>
  <rect width="1200" height="630" fill="url(#glow)"/>
  <line x1="0" y1="629" x2="1200" y2="629" stroke="#c69a52" stroke-opacity="0.35" stroke-width="2"/>

  <!-- emblem -->
  <g transform="translate(150,190)">
    <circle cx="90" cy="90" r="90" fill="url(#gold)"/>
    <g stroke="#14181f" stroke-width="6" fill="none" stroke-linecap="round" stroke-linejoin="round">
      <path d="M90 46v88"/>
      <path d="M62 134h56"/>
      <path d="M90 58 62 70l28 12 28-12-28-12Z" fill="#14181f" stroke="none"/>
      <path d="M62 70l-14 26a14 14 0 0 0 28 0l-14-26Z"/>
      <path d="M118 70l-14 26a14 14 0 0 0 28 0l-14-26Z"/>
    </g>
  </g>

  <!-- wordmark + tagline -->
  <text x="380" y="290" font-family="Georgia, 'Playfair Display', serif" font-size="76" font-weight="600" fill="#f5f2ec">The Counsel</text>
  <text x="382" y="336" font-family="Arial, sans-serif" font-size="24" letter-spacing="2" fill="#c69a52">CLOUDTECH LEGAL SUITE</text>
  <text x="382" y="396" font-family="Arial, sans-serif" font-size="30" fill="#b7b2a8">Enterprise Legal Practice Management</text>
  <text x="382" y="436" font-family="Arial, sans-serif" font-size="30" fill="#b7b2a8">for the modern law firm.</text>
</svg>
